<svg width="439" height="222" viewBox="0 0 439 222" fill="none" xmlns="http://www.w3.org/2000/svg">
<path fill-rule="evenodd" clip-rule="evenodd" d="M46.488 62.0086C46.5266 62.0029 46.5643 62 46.6009 62V62.0319C47.2474 62.2019 48.1054 63.0108 48.6154 63.4916L48.6396 63.5144C63.2343 77.2691 62.3839 93.7562 61.932 102.518L61.9316 102.526C61.9177 102.795 61.9043 103.056 61.8916 103.31C61.733 106.495 61.6375 108.413 62.4579 108.413C66.4639 111.024 68.3956 112.702 70.9838 116.282C72.3001 121.883 71.6586 124.409 69.4336 128.327L56.6449 123.858C55.3694 123.858 55.2891 125.816 55.2048 127.873C55.1354 129.566 55.0632 131.325 54.3196 132.115C52.8955 133.543 48.3638 133.495 46.7351 133.478C46.6431 133.477 46.5603 133.476 46.488 133.475C46.4156 133.476 46.3329 133.477 46.241 133.478C44.6122 133.495 40.0806 133.543 38.6565 132.115C37.9129 131.325 37.8407 129.566 37.7713 127.873C37.687 125.816 37.6067 123.858 36.3313 123.858L23.5428 128.327C21.3179 124.409 20.6764 121.883 21.9927 116.282C24.5808 112.702 26.5125 111.024 30.5183 108.413C31.3388 108.413 31.2432 106.495 31.0846 103.31C31.0719 103.054 31.0582 102.789 31.0442 102.518C30.5923 93.7562 29.742 77.2691 44.3363 63.5144L44.3605 63.4915C44.8705 63.0108 45.7285 62.202 46.375 62.032V62C46.4116 62 46.4493 62.0029 46.488 62.0086ZM46.4879 81.6952C45.552 81.7211 44.6951 81.8861 43.9172 82.1901C43.0669 82.5041 42.3299 82.9657 41.7063 83.575C41.1016 84.1659 40.6292 84.8953 40.289 85.7632C39.9678 86.6126 39.8072 87.5728 39.8072 88.6438C39.8072 89.7332 39.9678 90.7119 40.289 91.5798C40.6292 92.4292 41.1016 93.1585 41.7063 93.7679C42.311 94.3588 43.0385 94.8204 43.8889 95.1528C44.668 95.4404 45.5344 95.5962 46.4879 95.6203C47.4416 95.5962 48.3079 95.4404 49.0871 95.1528C49.9374 94.8204 50.665 94.3588 51.2697 93.7679C51.8744 93.1585 52.3469 92.4292 52.687 91.5798C53.0083 90.7119 53.1689 89.7332 53.1689 88.6438C53.1689 87.5728 53.0083 86.6126 52.687 85.7632C52.3469 84.8953 51.8744 84.1659 51.2697 83.575C50.6461 82.9657 49.9091 82.5041 49.0587 82.1901C48.2808 81.8861 47.4239 81.7211 46.4879 81.6952Z" fill="#69349E"/>
<path d="M46.1398 140.308L17.1464 133.441C15.9613 133.158 15.0648 133.276 14.457 133.797C13.8575 134.281 13.4085 135.192 13.11 136.531C12.9608 137.201 12.8737 137.846 12.8488 138.467C12.7962 139.042 12.7907 139.491 12.8321 139.814L43.8627 147.31C44.8331 147.542 45.8245 147.656 46.1398 147.656C46.3747 147.631 47.8527 147.373 48.1166 147.31L80.3306 139.607C80.372 139.284 80.3664 138.835 80.3139 138.26C80.289 137.639 80.202 136.994 80.0528 136.324C79.7544 134.986 79.3054 134.074 78.7059 133.591C78.0981 133.07 77.2017 132.952 76.0165 133.235L46.1398 140.308Z" fill="#69349E"/>
<path d="M46.1898 150.217L6.01602 140.646C4.37388 140.251 3.13171 140.416 2.2895 141.142C1.45878 141.816 0.836634 143.086 0.423052 144.953C0.216261 145.886 0.0956008 146.786 0.0610726 147.651C-0.0117313 148.453 -0.0194437 149.079 0.0379353 149.53L43.0346 159.978C44.3792 160.302 45.7529 160.46 46.1898 160.46C46.5153 160.425 48.5632 160.066 48.929 159.978L93.5653 149.241C93.6227 148.79 93.615 148.164 93.5422 147.362C93.5077 146.497 93.3871 145.598 93.1804 144.665C92.7669 142.798 92.1448 141.528 91.3141 140.855C90.472 140.129 89.2298 139.964 87.5877 140.359L46.1898 150.217Z" fill="#69349E"/>
<path d="M182.325 131.704C182.325 138.424 179.829 143.704 174.837 147.544C169.845 151.288 162.549 153.16 152.949 153.16C149.013 153.16 145.413 152.872 142.149 152.296C138.981 151.72 136.197 150.904 133.797 149.848C131.493 148.696 129.669 147.352 128.325 145.816C127.077 144.184 126.453 142.408 126.453 140.488C126.453 138.664 126.837 137.08 127.605 135.736C128.469 134.392 129.573 133.288 130.917 132.424C133.605 134.152 136.677 135.688 140.133 137.032C143.685 138.376 147.765 139.048 152.373 139.048C156.309 139.048 159.285 138.424 161.301 137.176C163.317 135.832 164.325 134.008 164.325 131.704C164.325 127.768 161.445 125.176 155.685 123.928L147.621 122.056C140.517 120.424 135.237 117.976 131.781 114.712C128.421 111.448 126.741 107.08 126.741 101.608C126.741 95.368 129.237 90.328 134.229 86.488C139.221 82.552 146.229 80.584 155.253 80.584C158.709 80.584 161.877 80.872 164.757 81.448C167.733 81.928 170.277 82.696 172.389 83.752C174.597 84.712 176.277 85.912 177.429 87.352C178.677 88.696 179.301 90.28 179.301 92.104C179.301 93.832 178.917 95.368 178.149 96.712C177.381 97.96 176.469 98.968 175.413 99.736C174.549 99.16 173.397 98.584 171.957 98.008C170.613 97.432 169.077 96.904 167.349 96.424C165.717 95.944 163.941 95.56 162.021 95.272C160.197 94.888 158.373 94.696 156.549 94.696C152.805 94.696 149.877 95.32 147.765 96.568C145.653 97.72 144.597 99.4 144.597 101.608C144.597 103.24 145.173 104.584 146.325 105.64C147.573 106.696 149.685 107.56 152.661 108.232L159.717 109.96C167.685 111.784 173.445 114.472 176.997 118.024C180.549 121.48 182.325 126.04 182.325 131.704ZM225.164 139.336C227.948 139.336 230.492 139.096 232.796 138.616C235.1 138.04 236.78 137.368 237.836 136.6V120.616L223.868 121.912C220.028 122.296 217.1 123.16 215.084 124.504C213.068 125.752 212.06 127.768 212.06 130.552C212.06 133.336 213.068 135.496 215.084 137.032C217.196 138.568 220.556 139.336 225.164 139.336ZM224.588 80.728C233.996 80.728 241.484 82.744 247.052 86.776C252.716 90.808 255.548 97.048 255.548 105.496V138.76C255.548 141.064 254.972 142.888 253.82 144.232C252.668 145.576 251.228 146.776 249.5 147.832C246.812 149.464 243.404 150.76 239.276 151.72C235.148 152.68 230.444 153.16 225.164 153.16C215.564 153.16 207.98 151.336 202.412 147.688C196.94 143.944 194.204 138.376 194.204 130.984C194.204 124.552 196.22 119.656 200.252 116.296C204.38 112.84 210.332 110.728 218.108 109.96L237.836 107.944V105.352C237.836 101.704 236.492 99.016 233.804 97.288C231.212 95.56 227.516 94.696 222.716 94.696C218.972 94.696 215.324 95.176 211.772 96.136C208.22 97 205.052 98.104 202.268 99.448C201.212 98.68 200.3 97.672 199.532 96.424C198.86 95.08 198.524 93.64 198.524 92.104C198.524 90.184 198.956 88.648 199.82 87.496C200.78 86.248 202.268 85.144 204.284 84.184C207.068 83.032 210.236 82.168 213.788 81.592C217.34 81.016 220.94 80.728 224.588 80.728ZM324.631 81.304C327.127 81.304 329.191 81.88 330.823 83.032C332.551 84.184 333.415 86.104 333.415 88.792C333.415 90.04 333.031 92.056 332.263 94.84C331.591 97.624 330.631 100.84 329.383 104.488C328.231 108.136 326.887 112.072 325.351 116.296C323.815 120.52 322.231 124.696 320.599 128.824C318.967 132.856 317.335 136.696 315.703 140.344C314.071 143.992 312.583 147.064 311.239 149.56C310.279 150.328 308.839 150.952 306.919 151.432C304.999 151.912 302.887 152.152 300.583 152.152C297.799 152.152 295.399 151.768 293.383 151C291.463 150.328 290.071 149.176 289.207 147.544C288.343 145.912 287.287 143.656 286.039 140.776C284.791 137.896 283.447 134.632 282.007 130.984C280.567 127.336 279.079 123.496 277.543 119.464C276.007 115.336 274.519 111.256 273.079 107.224C271.735 103.192 270.439 99.304 269.191 95.56C268.039 91.816 267.079 88.456 266.311 85.48C267.271 84.328 268.615 83.368 270.343 82.6C272.167 81.736 274.039 81.304 275.959 81.304C278.455 81.304 280.471 81.88 282.007 83.032C283.639 84.184 284.887 86.248 285.751 89.224L292.951 112.984C293.527 114.904 294.151 116.968 294.823 119.176C295.591 121.288 296.311 123.4 296.983 125.512C297.655 127.528 298.279 129.496 298.855 131.416C299.527 133.24 300.055 134.776 300.439 136.024H301.015C303.799 127.576 306.535 118.888 309.223 109.96C311.911 100.936 314.263 92.056 316.279 83.32C317.431 82.648 318.727 82.168 320.167 81.88C321.703 81.496 323.191 81.304 324.631 81.304ZM360.865 125.08C362.209 129.976 364.705 133.528 368.353 135.736C372.001 137.944 376.513 139.048 381.889 139.048C385.921 139.048 389.617 138.472 392.977 137.32C396.433 136.072 399.217 134.776 401.329 133.432C402.673 134.2 403.777 135.256 404.641 136.6C405.505 137.944 405.937 139.384 405.937 140.92C405.937 142.84 405.265 144.568 403.921 146.104C402.673 147.544 400.897 148.792 398.593 149.848C396.385 150.904 393.745 151.72 390.673 152.296C387.601 152.872 384.289 153.16 380.737 153.16C375.073 153.16 369.889 152.392 365.185 150.856C360.577 149.32 356.593 147.016 353.233 143.944C349.969 140.776 347.377 136.888 345.457 132.28C343.633 127.672 342.721 122.296 342.721 116.152C342.721 110.2 343.633 105.016 345.457 100.6C347.281 96.184 349.729 92.488 352.801 89.512C355.969 86.536 359.617 84.328 363.745 82.888C367.873 81.448 372.241 80.728 376.849 80.728C381.553 80.728 385.873 81.496 389.809 83.032C393.745 84.472 397.105 86.536 399.889 89.224C402.673 91.816 404.833 94.984 406.369 98.728C408.001 102.376 408.817 106.36 408.817 110.68C408.817 113.368 408.097 115.384 406.657 116.728C405.313 118.072 403.393 118.936 400.897 119.32L360.865 125.08ZM376.849 94.408C372.145 94.408 368.209 95.992 365.041 99.16C361.873 102.232 360.097 106.648 359.713 112.408L391.681 107.656C391.297 104.104 389.905 101.032 387.505 98.44C385.105 95.752 381.553 94.408 376.849 94.408Z" fill="#69349E"/>
</svg>
